# Exported from Figuro at https://www.figuro.io

mtllib newscene.mtl
o cube17
v 0 0 0
v 256 0 0
v 256 256 0
v 0 256 0
v 256 0 -256
v 256 256 -256
v 0 0 -256
v 0 256 -256
# 8 vertices
vt 0 2
vt 1 2
vt 1 1
vt 0 1
vt 0 2
vt 1 2
vt 1 1
vt 0 1
vt -1 2
vt 0 2
vt 0 1
vt -1 1
vt -1 2
vt 0 2
vt 0 1
vt -1 1
vt 0 1
vt 1 1
vt 1 0
vt 0 0
vt 0 2
vt 1 2
vt 1 1
vt 0 1
# 24 uvs
vn -0.3333333333333333 -0.3333333333333333 0.3333333333333333
vn 0.3333333333333333 -0.3333333333333333 0.3333333333333333
vn 0.3333333333333333 0.3333333333333333 0.3333333333333333
vn -0.3333333333333333 0.3333333333333333 0.3333333333333333
vn 0.3333333333333333 -0.3333333333333333 -0.3333333333333333
vn 0.3333333333333333 0.3333333333333333 -0.3333333333333333
vn -0.3333333333333333 -0.3333333333333333 -0.3333333333333333
vn -0.3333333333333333 0.3333333333333333 -0.3333333333333333
# 8 normals
usemtl ffffff
f 1/4/1 2/3/2 3/2/3 4/1/4 
f 2/8/2 5/7/5 6/6/6 3/5/3 
f 5/12/5 7/11/7 8/10/8 6/9/6 
f 7/16/7 1/15/1 4/14/4 8/13/8 
f 7/20/7 5/19/5 2/18/2 1/17/1 
f 4/24/4 3/23/3 6/22/6 8/21/8 
# 6 polygons
o cube18
v 256 0 -256
v 512 0 -256
v 512 256 -256
v 256 256 -256
v 512 0 -512
v 512 256 -512
v 256 0 -512
v 256 256 -512
# 8 vertices
vt 1 2
vt 2 2
vt 2 1
vt 1 1
vt 1 2
vt 2 2
vt 2 1
vt 1 1
vt -2 2
vt -1 2
vt -1 1
vt -2 1
vt -2 2
vt -1 2
vt -1 1
vt -2 1
vt 1 0
vt 2 0
vt 2 -1
vt 1 -1
vt 1 3
vt 2 3
vt 2 2
vt 1 2
# 24 uvs
vn -0.3333333333333333 -0.3333333333333333 0.3333333333333333
vn 0.3333333333333333 -0.3333333333333333 0.3333333333333333
vn 0.3333333333333333 0.3333333333333333 0.3333333333333333
vn -0.3333333333333333 0.3333333333333333 0.3333333333333333
vn 0.3333333333333333 -0.3333333333333333 -0.3333333333333333
vn 0.3333333333333333 0.3333333333333333 -0.3333333333333333
vn -0.3333333333333333 -0.3333333333333333 -0.3333333333333333
vn -0.3333333333333333 0.3333333333333333 -0.3333333333333333
# 8 normals
usemtl ffffff
f 9/28/9 10/27/10 11/26/11 12/25/12 
f 10/32/10 13/31/13 14/30/14 11/29/11 
f 13/36/13 15/35/15 16/34/16 14/33/14 
f 15/40/15 9/39/9 12/38/12 16/37/16 
f 15/44/15 13/43/13 10/42/10 9/41/9 
f 12/48/12 11/47/11 14/46/14 16/45/16 
# 6 polygons
o cube19
v 514.2236165436617 -1.9639549767146036 -511.79194234045303
v 770.2236165436617 -1.9639549767146036 -511.79194234045303
v 770.2236165436617 254.0360450232854 -511.79194234045303
v 514.2236165436617 254.0360450232854 -511.79194234045303
v 770.2236165436617 -1.9639549767146036 -767.791942340453
v 770.2236165436617 254.0360450232854 -767.791942340453
v 514.2236165436617 -1.9639549767146036 -767.791942340453
v 514.2236165436617 254.0360450232854 -767.791942340453
# 8 vertices
vt 2.0086860021236785 1.9923283008722086
vt 3.0086860021236785 1.9923283008722086
vt 3.0086860021236785 0.9923283008722086
vt 2.0086860021236785 0.9923283008722086
vt 1.9991872747673947 1.9923283008722086
vt 2.9991872747673947 1.9923283008722086
vt 2.9991872747673947 0.9923283008722086
vt 1.9991872747673947 0.9923283008722086
vt -3.0086860021236785 1.9923283008722086
vt -2.0086860021236785 1.9923283008722086
vt -2.0086860021236785 0.9923283008722086
vt -3.0086860021236785 0.9923283008722086
vt -2.9991872747673947 1.9923283008722086
vt -1.9991872747673947 1.9923283008722086
vt -1.9991872747673947 0.9923283008722086
vt -2.9991872747673947 0.9923283008722086
vt 2.0086860021236785 -0.9991872747673947
vt 3.0086860021236785 -0.9991872747673947
vt 3.0086860021236785 -1.9991872747673947
vt 2.0086860021236785 -1.9991872747673947
vt 2.0086860021236785 3.9991872747673947
vt 3.0086860021236785 3.9991872747673947
vt 3.0086860021236785 2.9991872747673947
vt 2.0086860021236785 2.9991872747673947
# 24 uvs
vn -0.3333333333333333 -0.3333333333333333 0.3333333333333333
vn 0.3333333333333333 -0.3333333333333333 0.3333333333333333
vn 0.3333333333333333 0.3333333333333333 0.3333333333333333
vn -0.3333333333333333 0.3333333333333333 0.3333333333333333
vn 0.3333333333333333 -0.3333333333333333 -0.3333333333333333
vn 0.3333333333333333 0.3333333333333333 -0.3333333333333333
vn -0.3333333333333333 -0.3333333333333333 -0.3333333333333333
vn -0.3333333333333333 0.3333333333333333 -0.3333333333333333
# 8 normals
usemtl ffffff
f 17/52/17 18/51/18 19/50/19 20/49/20 
f 18/56/18 21/55/21 22/54/22 19/53/19 
f 21/60/21 23/59/23 24/58/24 22/57/22 
f 23/64/23 17/63/17 20/62/20 24/61/24 
f 23/68/23 21/67/21 18/66/18 17/65/17 
f 20/72/20 19/71/19 22/70/22 24/69/24 
# 6 polygons
o cube21
v 1024 0 -1024
v 768 0 -1024
v 768 256 -1024
v 1024 256 -1024
v 768 0 -768
v 768 256 -768
v 1024 0 -768
v 1024 256 -768
# 8 vertices
vt -4 2
vt -3 2
vt -3 1
vt -4 1
vt -4 2
vt -3 2
vt -3 1
vt -4 1
vt 3 2
vt 4 2
vt 4 1
vt 3 1
vt 3 2
vt 4 2
vt 4 1
vt 3 1
vt 4 -3
vt 3 -3
vt 3 -2
vt 4 -2
vt 4 4
vt 3 4
vt 3 5
vt 4 5
# 24 uvs
vn 0.3333333333333333 -0.3333333333333333 -0.3333333333333333
vn -0.3333333333333333 -0.3333333333333333 -0.3333333333333333
vn -0.3333333333333333 0.3333333333333333 -0.3333333333333333
vn 0.3333333333333333 0.3333333333333333 -0.3333333333333333
vn -0.3333333333333333 -0.3333333333333333 0.3333333333333333
vn -0.3333333333333333 0.3333333333333333 0.3333333333333333
vn 0.3333333333333333 -0.3333333333333333 0.3333333333333333
vn 0.3333333333333333 0.3333333333333333 0.3333333333333333
# 8 normals
usemtl ffffff
f 25/76/25 26/75/26 27/74/27 28/73/28 
f 26/80/26 29/79/29 30/78/30 27/77/27 
f 29/84/29 31/83/31 32/82/32 30/81/30 
f 31/88/31 25/87/25 28/86/28 32/85/32 
f 31/92/31 29/91/29 26/90/26 25/89/25 
f 28/96/28 27/95/27 30/94/30 32/93/32 
# 6 polygons
o cube22
v 0 0 -256
v 256 0 -256
v 256 256 -256
v 0 256 -256
v 256 0 -512
v 256 256 -512
v 0 0 -512
v 0 256 -512
# 8 vertices
vt 0 2
vt 1 2
vt 1 1
vt 0 1
vt 1 2
vt 2 2
vt 2 1
vt 1 1
vt -1 2
vt 0 2
vt 0 1
vt -1 1
vt -2 2
vt -1 2
vt -1 1
vt -2 1
vt 0 0
vt 1 0
vt 1 -1
vt 0 -1
vt 0 3
vt 1 3
vt 1 2
vt 0 2
# 24 uvs
vn -0.3333333333333333 -0.3333333333333333 0.3333333333333333
vn 0.3333333333333333 -0.3333333333333333 0.3333333333333333
vn 0.3333333333333333 0.3333333333333333 0.3333333333333333
vn -0.3333333333333333 0.3333333333333333 0.3333333333333333
vn 0.3333333333333333 -0.3333333333333333 -0.3333333333333333
vn 0.3333333333333333 0.3333333333333333 -0.3333333333333333
vn -0.3333333333333333 -0.3333333333333333 -0.3333333333333333
vn -0.3333333333333333 0.3333333333333333 -0.3333333333333333
# 8 normals
usemtl 000000
f 33/100/33 34/99/34 35/98/35 36/97/36 
f 34/104/34 37/103/37 38/102/38 35/101/35 
f 37/108/37 39/107/39 40/106/40 38/105/38 
f 39/112/39 33/111/33 36/110/36 40/109/40 
f 39/116/39 37/115/37 34/114/34 33/113/33 
f 36/120/36 35/119/35 38/118/38 40/117/40 
# 6 polygons
o cube24
v 256 0 -768
v 0 0 -768
v 0 256 -768
v 256 256 -768
v 0 0 -512
v 0 256 -512
v 256 0 -512
v 256 256 -512
# 8 vertices
vt -1 2
vt 0 2
vt 0 1
vt -1 1
vt -3 2
vt -2 2
vt -2 1
vt -3 1
vt 0 2
vt 1 2
vt 1 1
vt 0 1
vt 2 2
vt 3 2
vt 3 1
vt 2 1
vt 1 -2
vt 0 -2
vt 0 -1
vt 1 -1
vt 1 3
vt 0 3
vt 0 4
vt 1 4
# 24 uvs
vn 0.3333333333333333 -0.3333333333333333 -0.3333333333333333
vn -0.3333333333333333 -0.3333333333333333 -0.3333333333333333
vn -0.3333333333333333 0.3333333333333333 -0.3333333333333333
vn 0.3333333333333333 0.3333333333333333 -0.3333333333333333
vn -0.3333333333333333 -0.3333333333333333 0.3333333333333333
vn -0.3333333333333333 0.3333333333333333 0.3333333333333333
vn 0.3333333333333333 -0.3333333333333333 0.3333333333333333
vn 0.3333333333333333 0.3333333333333333 0.3333333333333333
# 8 normals
usemtl ffffff
f 41/124/41 42/123/42 43/122/43 44/121/44 
f 42/128/42 45/127/45 46/126/46 43/125/43 
f 45/132/45 47/131/47 48/130/48 46/129/46 
f 47/136/47 41/135/41 44/134/44 48/133/48 
f 47/140/47 45/139/45 42/138/42 41/137/41 
f 44/144/44 43/143/43 46/142/46 48/141/48 
# 6 polygons
o cube25
v 256 0 -1024
v 0 0 -1024
v 0 256 -1024
v 256 256 -1024
v 0 0 -768
v 0 256 -768
v 256 0 -768
v 256 256 -768
# 8 vertices
vt -1 2
vt 0 2
vt 0 1
vt -1 1
vt -4 2
vt -3 2
vt -3 1
vt -4 1
vt 0 2
vt 1 2
vt 1 1
vt 0 1
vt 3 2
vt 4 2
vt 4 1
vt 3 1
vt 1 -3
vt 0 -3
vt 0 -2
vt 1 -2
vt 1 4
vt 0 4
vt 0 5
vt 1 5
# 24 uvs
vn 0.3333333333333333 -0.3333333333333333 -0.3333333333333333
vn -0.3333333333333333 -0.3333333333333333 -0.3333333333333333
vn -0.3333333333333333 0.3333333333333333 -0.3333333333333333
vn 0.3333333333333333 0.3333333333333333 -0.3333333333333333
vn -0.3333333333333333 -0.3333333333333333 0.3333333333333333
vn -0.3333333333333333 0.3333333333333333 0.3333333333333333
vn 0.3333333333333333 -0.3333333333333333 0.3333333333333333
vn 0.3333333333333333 0.3333333333333333 0.3333333333333333
# 8 normals
usemtl 000000
f 49/148/49 50/147/50 51/146/51 52/145/52 
f 50/152/50 53/151/53 54/150/54 51/149/51 
f 53/156/53 55/155/55 56/154/56 54/153/54 
f 55/160/55 49/159/49 52/158/52 56/157/56 
f 55/164/55 53/163/53 50/162/50 49/161/49 
f 52/168/52 51/167/51 54/166/54 56/165/56 
# 6 polygons
o cube26
v 512 0 -1024
v 256 0 -1024
v 256 256 -1024
v 512 256 -1024
v 256 0 -768
v 256 256 -768
v 512 0 -768
v 512 256 -768
# 8 vertices
vt -2 2
vt -1 2
vt -1 1
vt -2 1
vt -4 2
vt -3 2
vt -3 1
vt -4 1
vt 1 2
vt 2 2
vt 2 1
vt 1 1
vt 3 2
vt 4 2
vt 4 1
vt 3 1
vt 2 -3
vt 1 -3
vt 1 -2
vt 2 -2
vt 2 4
vt 1 4
vt 1 5
vt 2 5
# 24 uvs
vn 0.3333333333333333 -0.3333333333333333 -0.3333333333333333
vn -0.3333333333333333 -0.3333333333333333 -0.3333333333333333
vn -0.3333333333333333 0.3333333333333333 -0.3333333333333333
vn 0.3333333333333333 0.3333333333333333 -0.3333333333333333
vn -0.3333333333333333 -0.3333333333333333 0.3333333333333333
vn -0.3333333333333333 0.3333333333333333 0.3333333333333333
vn 0.3333333333333333 -0.3333333333333333 0.3333333333333333
vn 0.3333333333333333 0.3333333333333333 0.3333333333333333
# 8 normals
usemtl ffffff
f 57/172/57 58/171/58 59/170/59 60/169/60 
f 58/176/58 61/175/61 62/174/62 59/173/59 
f 61/180/61 63/179/63 64/178/64 62/177/62 
f 63/184/63 57/183/57 60/182/60 64/181/64 
f 63/188/63 61/187/61 58/186/58 57/185/57 
f 60/192/60 59/191/59 62/190/62 64/189/64 
# 6 polygons
o cube30
v 256 0 -512
v 512 0 -512
v 512 256 -512
v 256 256 -512
v 512 0 -768
v 512 256 -768
v 256 0 -768
v 256 256 -768
# 8 vertices
vt 1 2
vt 2 2
vt 2 1
vt 1 1
vt 2 2
vt 3 2
vt 3 1
vt 2 1
vt -2 2
vt -1 2
vt -1 1
vt -2 1
vt -3 2
vt -2 2
vt -2 1
vt -3 1
vt 1 -1
vt 2 -1
vt 2 -2
vt 1 -2
vt 1 4
vt 2 4
vt 2 3
vt 1 3
# 24 uvs
vn -0.3333333333333333 -0.3333333333333333 0.3333333333333333
vn 0.3333333333333333 -0.3333333333333333 0.3333333333333333
vn 0.3333333333333333 0.3333333333333333 0.3333333333333333
vn -0.3333333333333333 0.3333333333333333 0.3333333333333333
vn 0.3333333333333333 -0.3333333333333333 -0.3333333333333333
vn 0.3333333333333333 0.3333333333333333 -0.3333333333333333
vn -0.3333333333333333 -0.3333333333333333 -0.3333333333333333
vn -0.3333333333333333 0.3333333333333333 -0.3333333333333333
# 8 normals
usemtl 000000
f 65/196/65 66/195/66 67/194/67 68/193/68 
f 66/200/66 69/199/69 70/198/70 67/197/67 
f 69/204/69 71/203/71 72/202/72 70/201/70 
f 71/208/71 65/207/65 68/206/68 72/205/72 
f 71/212/71 69/211/69 66/210/66 65/209/65 
f 68/216/68 67/215/67 70/214/70 72/213/72 
# 6 polygons
o cube31
v 257.31168885677926 -0.8647882893146743 -258.8405335087702
v 513.3116888567793 -0.8647882893146743 -258.8405335087702
v 513.3116888567793 255.13521171068533 -258.8405335087702
v 257.31168885677926 255.13521171068533 -258.8405335087702
v 513.3116888567793 -0.8647882893146743 -2.840533508770193
v 513.3116888567793 255.13521171068533 -2.840533508770193
v 257.31168885677926 -0.8647882893146743 -2.840533508770193
v 257.31168885677926 255.13521171068533 -2.840533508770193
# 8 vertices
vt -1.005123784596794 0.9966219207448646
vt -2.005123784596794 0.9966219207448646
vt -2.005123784596794 1.9966219207448646
vt -1.005123784596794 1.9966219207448646
vt 1.0110958340186336 0.9966219207448646
vt 0.011095834018633566 0.9966219207448646
vt 0.011095834018633566 1.9966219207448646
vt 1.0110958340186336 1.9966219207448646
vt 2.005123784596794 0.9966219207448646
vt 1.005123784596794 0.9966219207448646
vt 1.005123784596794 1.9966219207448646
vt 2.005123784596794 1.9966219207448646
vt -0.011095834018633566 0.9966219207448646
vt -1.0110958340186336 0.9966219207448646
vt -1.0110958340186336 1.9966219207448646
vt -0.011095834018633566 1.9966219207448646
vt 1.005123784596794 0.9889041659813664
vt 2.005123784596794 0.9889041659813664
vt 2.005123784596794 -0.011095834018633566
vt 1.005123784596794 -0.011095834018633566
vt 1.005123784596794 2.011095834018634
vt 2.005123784596794 2.011095834018634
vt 2.005123784596794 1.0110958340186336
vt 1.005123784596794 1.0110958340186336
# 24 uvs
vn -0.3333333333333333 -0.3333333333333333 -0.3333333333333333
vn 0.3333333333333333 -0.3333333333333333 -0.3333333333333333
vn 0.3333333333333333 0.3333333333333333 -0.3333333333333333
vn -0.3333333333333333 0.3333333333333333 -0.3333333333333333
vn 0.3333333333333333 -0.3333333333333333 0.3333333333333333
vn 0.3333333333333333 0.3333333333333333 0.3333333333333333
vn -0.3333333333333333 -0.3333333333333333 0.3333333333333333
vn -0.3333333333333333 0.3333333333333333 0.3333333333333333
# 8 normals
usemtl 000000
f 76/220/76 75/219/75 74/218/74 73/217/73 
f 75/224/75 78/223/78 77/222/77 74/221/74 
f 78/228/78 80/227/80 79/226/79 77/225/77 
f 80/232/80 76/231/76 73/230/73 79/229/79 
f 73/236/73 74/235/74 77/234/77 79/233/79 
f 80/240/80 78/239/78 75/238/75 76/237/76 
# 6 polygons
o cube32
v 768 0 -256
v 512 0 -256
v 512 256 -256
v 768 256 -256
v 512 0 -512
v 512 256 -512
v 768 0 -512
v 768 256 -512
# 8 vertices
vt 3 1
vt 2 1
vt 2 2
vt 3 2
vt -1 1
vt -2 1
vt -2 2
vt -1 2
vt -2 1
vt -3 1
vt -3 2
vt -2 2
vt 2 1
vt 1 1
vt 1 2
vt 2 2
vt 3 -1
vt 2 -1
vt 2 0
vt 3 0
vt 3 2
vt 2 2
vt 2 3
vt 3 3
# 24 uvs
vn 0.3333333333333333 -0.3333333333333333 0.3333333333333333
vn -0.3333333333333333 -0.3333333333333333 0.3333333333333333
vn -0.3333333333333333 0.3333333333333333 0.3333333333333333
vn 0.3333333333333333 0.3333333333333333 0.3333333333333333
vn -0.3333333333333333 -0.3333333333333333 -0.3333333333333333
vn -0.3333333333333333 0.3333333333333333 -0.3333333333333333
vn 0.3333333333333333 -0.3333333333333333 -0.3333333333333333
vn 0.3333333333333333 0.3333333333333333 -0.3333333333333333
# 8 normals
usemtl 000000
f 84/244/84 83/243/83 82/242/82 81/241/81 
f 83/248/83 86/247/86 85/246/85 82/245/82 
f 86/252/86 88/251/88 87/250/87 85/249/85 
f 88/256/88 84/255/84 81/254/81 87/253/87 
f 81/260/81 82/259/82 85/258/85 87/257/87 
f 88/264/88 86/263/86 83/262/83 84/261/84 
# 6 polygons
o cube33
v 512 0 -256
v 768 0 -256
v 768 256 -256
v 512 256 -256
v 768 0 0
v 768 256 0
v 512 0 0
v 512 256 0
# 8 vertices
vt -2 1
vt -3 1
vt -3 2
vt -2 2
vt 1 1
vt 0 1
vt 0 2
vt 1 2
vt 3 1
vt 2 1
vt 2 2
vt 3 2
vt 0 1
vt -1 1
vt -1 2
vt 0 2
vt 2 1
vt 3 1
vt 3 0
vt 2 0
vt 2 2
vt 3 2
vt 3 1
vt 2 1
# 24 uvs
vn -0.3333333333333333 -0.3333333333333333 -0.3333333333333333
vn 0.3333333333333333 -0.3333333333333333 -0.3333333333333333
vn 0.3333333333333333 0.3333333333333333 -0.3333333333333333
vn -0.3333333333333333 0.3333333333333333 -0.3333333333333333
vn 0.3333333333333333 -0.3333333333333333 0.3333333333333333
vn 0.3333333333333333 0.3333333333333333 0.3333333333333333
vn -0.3333333333333333 -0.3333333333333333 0.3333333333333333
vn -0.3333333333333333 0.3333333333333333 0.3333333333333333
# 8 normals
usemtl ffffff
f 92/268/92 91/267/91 90/266/90 89/265/89 
f 91/272/91 94/271/94 93/270/93 90/269/90 
f 94/276/94 96/275/96 95/274/95 93/273/93 
f 96/280/96 92/279/92 89/278/89 95/277/95 
f 89/284/89 90/283/90 93/282/93 95/281/95 
f 96/288/96 94/287/94 91/286/91 92/285/92 
# 6 polygons
o cube34
v 512 0 -768
v 768 0 -768
v 768 256 -768
v 512 256 -768
v 768 0 -1024
v 768 256 -1024
v 512 0 -1024
v 512 256 -1024
# 8 vertices
vt 2 2
vt 3 2
vt 3 1
vt 2 1
vt 3 2
vt 4 2
vt 4 1
vt 3 1
vt -3 2
vt -2 2
vt -2 1
vt -3 1
vt -4 2
vt -3 2
vt -3 1
vt -4 1
vt 2 -2
vt 3 -2
vt 3 -3
vt 2 -3
vt 2 5
vt 3 5
vt 3 4
vt 2 4
# 24 uvs
vn -0.3333333333333333 -0.3333333333333333 0.3333333333333333
vn 0.3333333333333333 -0.3333333333333333 0.3333333333333333
vn 0.3333333333333333 0.3333333333333333 0.3333333333333333
vn -0.3333333333333333 0.3333333333333333 0.3333333333333333
vn 0.3333333333333333 -0.3333333333333333 -0.3333333333333333
vn 0.3333333333333333 0.3333333333333333 -0.3333333333333333
vn -0.3333333333333333 -0.3333333333333333 -0.3333333333333333
vn -0.3333333333333333 0.3333333333333333 -0.3333333333333333
# 8 normals
usemtl 000000
f 97/292/97 98/291/98 99/290/99 100/289/100 
f 98/296/98 101/295/101 102/294/102 99/293/99 
f 101/300/101 103/299/103 104/298/104 102/297/102 
f 103/304/103 97/303/97 100/302/100 104/301/104 
f 103/308/103 101/307/101 98/306/98 97/305/97 
f 100/312/100 99/311/99 102/310/102 104/309/104 
# 6 polygons
o cube36
v 1024 0 -512
v 768 0 -512
v 768 256 -512
v 1024 256 -512
v 768 0 -768
v 768 256 -768
v 1024 0 -768
v 1024 256 -768
# 8 vertices
vt 4 1
vt 3 1
vt 3 2
vt 4 2
vt -2 1
vt -3 1
vt -3 2
vt -2 2
vt -3 1
vt -4 1
vt -4 2
vt -3 2
vt 3 1
vt 2 1
vt 2 2
vt 3 2
vt 4 -2
vt 3 -2
vt 3 -1
vt 4 -1
vt 4 3
vt 3 3
vt 3 4
vt 4 4
# 24 uvs
vn 0.3333333333333333 -0.3333333333333333 0.3333333333333333
vn -0.3333333333333333 -0.3333333333333333 0.3333333333333333
vn -0.3333333333333333 0.3333333333333333 0.3333333333333333
vn 0.3333333333333333 0.3333333333333333 0.3333333333333333
vn -0.3333333333333333 -0.3333333333333333 -0.3333333333333333
vn -0.3333333333333333 0.3333333333333333 -0.3333333333333333
vn 0.3333333333333333 -0.3333333333333333 -0.3333333333333333
vn 0.3333333333333333 0.3333333333333333 -0.3333333333333333
# 8 normals
usemtl 000000
f 108/316/108 107/315/107 106/314/106 105/313/105 
f 107/320/107 110/319/110 109/318/109 106/317/106 
f 110/324/110 112/323/112 111/322/111 109/321/109 
f 112/328/112 108/327/108 105/326/105 111/325/111 
f 105/332/105 106/331/106 109/330/109 111/329/111 
f 112/336/112 110/335/110 107/334/107 108/333/108 
# 6 polygons
o cube37
v 1024 0 -256
v 768 0 -256
v 768 256 -256
v 1024 256 -256
v 768 0 -512
v 768 256 -512
v 1024 0 -512
v 1024 256 -512
# 8 vertices
vt 4 1
vt 3 1
vt 3 2
vt 4 2
vt -1 1
vt -2 1
vt -2 2
vt -1 2
vt -3 1
vt -4 1
vt -4 2
vt -3 2
vt 2 1
vt 1 1
vt 1 2
vt 2 2
vt 4 -1
vt 3 -1
vt 3 0
vt 4 0
vt 4 2
vt 3 2
vt 3 3
vt 4 3
# 24 uvs
vn 0.3333333333333333 -0.3333333333333333 0.3333333333333333
vn -0.3333333333333333 -0.3333333333333333 0.3333333333333333
vn -0.3333333333333333 0.3333333333333333 0.3333333333333333
vn 0.3333333333333333 0.3333333333333333 0.3333333333333333
vn -0.3333333333333333 -0.3333333333333333 -0.3333333333333333
vn -0.3333333333333333 0.3333333333333333 -0.3333333333333333
vn 0.3333333333333333 -0.3333333333333333 -0.3333333333333333
vn 0.3333333333333333 0.3333333333333333 -0.3333333333333333
# 8 normals
usemtl ffffff
f 116/340/116 115/339/115 114/338/114 113/337/113 
f 115/344/115 118/343/118 117/342/117 114/341/114 
f 118/348/118 120/347/120 119/346/119 117/345/117 
f 120/352/120 116/351/116 113/350/113 119/349/119 
f 113/356/113 114/355/114 117/354/117 119/353/119 
f 120/360/120 118/359/118 115/358/115 116/357/116 
# 6 polygons
o cube38
v 1024 0 0
v 768 0 0
v 768 256 0
v 1024 256 0
v 768 0 -256
v 768 256 -256
v 1024 0 -256
v 1024 256 -256
# 8 vertices
vt 4 1
vt 3 1
vt 3 2
vt 4 2
vt 0 1
vt -1 1
vt -1 2
vt 0 2
vt -3 1
vt -4 1
vt -4 2
vt -3 2
vt 1 1
vt 0 1
vt 0 2
vt 1 2
vt 4 0
vt 3 0
vt 3 1
vt 4 1
vt 4 1
vt 3 1
vt 3 2
vt 4 2
# 24 uvs
vn 0.3333333333333333 -0.3333333333333333 0.3333333333333333
vn -0.3333333333333333 -0.3333333333333333 0.3333333333333333
vn -0.3333333333333333 0.3333333333333333 0.3333333333333333
vn 0.3333333333333333 0.3333333333333333 0.3333333333333333
vn -0.3333333333333333 -0.3333333333333333 -0.3333333333333333
vn -0.3333333333333333 0.3333333333333333 -0.3333333333333333
vn 0.3333333333333333 -0.3333333333333333 -0.3333333333333333
vn 0.3333333333333333 0.3333333333333333 -0.3333333333333333
# 8 normals
usemtl 000000
f 124/364/124 123/363/123 122/362/122 121/361/121 
f 123/368/123 126/367/126 125/366/125 122/365/122 
f 126/372/126 128/371/128 127/370/127 125/369/125 
f 128/376/128 124/375/124 121/374/121 127/373/127 
f 121/380/121 122/379/122 125/378/125 127/377/127 
f 128/384/128 126/383/126 123/382/123 124/381/124 
# 6 polygons